<svg xmlns="http://www.w3.org/2000/svg" viewBox="0 0 172.65 51.83"><defs><style>.cls-1{fill:#55b3f2;}.cls-2{fill:#fff;}</style></defs><title>background_cloud_2</title><g id="Layer_2" data-name="Layer 2"><g id="clouds"><circle class="cls-1" cx="51.66" cy="50.33" r="1.5"/><path class="cls-1" d="M171.65,49.33H146.79a16.33,16.33,0,0,0-15-14.94A35.66,35.66,0,0,0,63.1,22.27a16.17,16.17,0,0,0-1.94-.12A17.5,17.5,0,0,0,43.7,38.34a12.95,12.95,0,0,0-17.82,11H1a1,1,0,0,0,0,2H27.82v-1h0a11,11,0,0,1,21.33-3.55A1,1,0,0,0,51,46.14a12.94,12.94,0,0,0-5.4-6.79,15.4,15.4,0,0,1,17.93-15l.8.13.29-.76A33.66,33.66,0,0,1,129.8,34.87a1.4,1.4,0,0,0,1,1.8,1,1,0,0,0,.7-.29,14.26,14.26,0,0,1,13.3,14v1h26.82a1,1,0,0,0,0-2Z"/><path class="cls-2" d="M131.53,36.38a1,1,0,0,1-.7.29,1,1,0,0,1-1-.77.91.91,0,0,1-.07-1A33.66,33.66,0,0,0,64.68,23.72l-.29.76-.8-.13a15.48,15.48,0,0,0-17.93,15A12.94,12.94,0,0,1,51,46.14a1,1,0,0,1-1.89.65,11,11,0,0,0-21.33,3.55h0v1H50.55a1.5,1.5,0,1,1,2.22,0h92.06v-1A14.26,14.26,0,0,0,131.53,36.38Z"/></g></g></svg>