<svg xmlns="http://www.w3.org/2000/svg" viewBox="0 0 115.04 21.06"><defs><style>.cls-1{fill:#55b3f2;}.cls-2{fill:#fff;}</style></defs><title>Asset 46</title><g id="Layer_2" data-name="Layer 2"><g id="clouds"><circle class="cls-1" cx="78.01" cy="15.94" r="1.5"/><path class="cls-1" d="M105,19.06h9a1,1,0,1,1,0,2H102a1.11,1.11,0,0,1-1-1.12A11,11,0,0,0,81.44,13a1,1,0,1,1-1.55-1.26A13,13,0,0,1,84,8.4,18.06,18.06,0,0,0,52.2,20.06v1H1a1,1,0,0,1,0-2H50.23A20.05,20.05,0,0,1,86,7.59a13,13,0,0,1,17,11.47H105"/><path class="cls-2" d="M102,21.06a1.11,1.11,0,0,1-1-1.12A11,11,0,0,0,81.44,13a1,1,0,1,1-1.55-1.26A13,13,0,0,1,84,8.4,18.06,18.06,0,0,0,52.21,20.06v1M78,17.44a1.5,1.5,0,1,1,1.5-1.5A1.5,1.5,0,0,1,78,17.44Z"/></g></g></svg>