<svg xmlns="http://www.w3.org/2000/svg" viewBox="0 0 185.99 62.88"><defs><style>.cls-1{fill:#55b3f2;}.cls-2{fill:#fff;}</style></defs><title>background_cloud_5</title><g id="Layer_2" data-name="Layer 2"><g id="clouds"><path class="cls-1" d="M185,60.88H165.64c-.4-8-5.46-16.76-13.13-22.68a34.83,34.83,0,0,0-29.43-6.48c0-.63.06-1.23.06-1.79a30.14,30.14,0,0,0-60.29,0c0,.56,0,1.16.06,1.79A34.83,34.83,0,0,0,33.48,38.2c-7.67,5.92-12.73,14.72-13.13,22.68H1a1,1,0,0,0,0,2H22.33v-1c0-7.62,4.86-16.29,12.37-22.1A33,33,0,0,1,63.78,34l1.4.37L65,32.91a28.48,28.48,0,0,1-.17-3,28.14,28.14,0,0,1,56.29,0,28.48,28.48,0,0,1-.17,3l-.15,1.44,1.4-.37a33,33,0,0,1,29.07,5.8c7.52,5.81,12.37,14.48,12.37,22.1v1H185a1,1,0,0,0,0-2Z"/><path class="cls-2" d="M151.29,39.78A33,33,0,0,0,122.21,34l-1.4.37.15-1.44a28.48,28.48,0,0,0,.17-3,28.14,28.14,0,0,0-56.29,0,28.48,28.48,0,0,0,.17,3l.15,1.44L63.78,34a33,33,0,0,0-29.07,5.8c-7.52,5.81-12.37,14.48-12.37,22.1v1H163.66v-1C163.66,54.26,158.8,45.58,151.29,39.78Z"/></g></g></svg>