<svg xmlns="http://www.w3.org/2000/svg" viewBox="0 0 264.02 92.12"><defs><style>.cls-1{fill:#55b3f2;}.cls-2{fill:#fff;}</style></defs><title>background_cloud_4</title><g id="Layer_2" data-name="Layer 2"><g id="clouds"><path class="cls-1" d="M142,89.62h-5a1,1,0,0,0,0,2h5a1,1,0,0,0,0-2Z"/><circle class="cls-1" cx="148.02" cy="90.62" r="1.5"/><path class="cls-1" d="M263,89.66H249A30.22,30.22,0,0,0,222.9,61.59c.05-.75.08-1.5.08-2.21a30,30,0,0,0-46.66-24.84,35.66,35.66,0,0,0-68.7-12.27,16.17,16.17,0,0,0-1.94-.12A17.54,17.54,0,0,0,88.28,37.7a29.67,29.67,0,0,0-21.24-9H67a29.79,29.79,0,0,0-24.56,13l-.17.24-.3.47c-.16.25-.33.5-.48.76h0a29.75,29.75,0,0,0-3.71,9.47,30.12,30.12,0,0,0-.61,6.05s0,0,0,0c0,.64,0,1.33.1,2.11A30.21,30.21,0,0,0,11.17,89.62H1a1,1,0,0,0,0,2H13.15v-1A28.16,28.16,0,0,1,38.43,62.75l1-.09-.11-1a28.92,28.92,0,0,1-.18-3,28.06,28.06,0,0,1,.32-4.25v0q.1-.66.23-1.3a27.88,27.88,0,0,1,4-9.64l.22-.35.23-.32a27.78,27.78,0,0,1,45.74,0l.23.32.22.35a27.88,27.88,0,0,1,4,9.64q.13.65.23,1.3v0a28.06,28.06,0,0,1,.32,4.25,28.92,28.92,0,0,1-.18,3l-.11,1,1,.09a28.16,28.16,0,0,1,25.27,27.87v1H133a1,1,0,0,0,0-2H122.85A30.21,30.21,0,0,0,96.77,60.87c.06-.77.09-1.47.1-2.11,0,0,0,0,0,0a30.12,30.12,0,0,0-.61-6.05,29.75,29.75,0,0,0-3.71-9.47h0c-.16-.26-.32-.51-.48-.76l-.3-.47-.17-.24c-.49-.71-1-1.39-1.56-2.05h.13a15.41,15.41,0,0,1,17.95-15.31l.8.13.29-.76a33.67,33.67,0,0,1,65.15,11.94h.43a29.9,29.9,0,0,0-9.51,12.63,1,1,0,1,0,1.86.74A27.93,27.93,0,0,1,221,59.38a29.5,29.5,0,0,1-.16,3l-.1,1,1,.09A28.17,28.17,0,0,1,247,90.95a2.45,2.45,0,0,0,0,.32s0,0,0,.07h0c0,.2.14.33.44.33H263a1,1,0,0,0,0-2Z"/><path class="cls-1" d="M165.21,51.8a1,1,0,0,0-1.2.75,30.28,30.28,0,0,0-.79,6.89,1,1,0,0,0,2,0A28.29,28.29,0,0,1,166,53,1,1,0,0,0,165.21,51.8Z"/><circle class="cls-1" cx="164.18" cy="64.33" r="1.5"/><path class="cls-2" d="M95.59,62.75l-1-.09.11-1a28.92,28.92,0,0,0,.18-3,28.06,28.06,0,0,0-.32-4.25v0q-.1-.66-.23-1.3a27.88,27.88,0,0,0-4-9.64l-.22-.35-.23-.32a27.78,27.78,0,0,0-45.74,0l-.23.32-.22.35a27.88,27.88,0,0,0-4,9.64q-.13.65-.23,1.3v0a28.06,28.06,0,0,0-.32,4.25,28.92,28.92,0,0,0,.18,3l.11,1-1,.09A28.16,28.16,0,0,0,13.15,90.62v1H120.86v-1A28.16,28.16,0,0,0,95.59,62.75Z"/><path class="cls-2" d="M247,91.33h0s0,0,0-.07a2.45,2.45,0,0,1,0-.32,28.17,28.17,0,0,0-25.29-27.48l-1-.09.1-1a29.5,29.5,0,0,0,.16-3A27.93,27.93,0,0,0,167.12,49a1,1,0,1,1-1.86-.74,29.9,29.9,0,0,1,9.51-12.63h-.43A33.67,33.67,0,0,0,109.2,23.72l-.29.76-.8-.13A15.41,15.41,0,0,0,90.16,39.67H90c.55.66,1.07,1.34,1.56,2.05l.17.24.3.47c.16.25.33.5.48.76h0a29.75,29.75,0,0,1,3.71,9.47,30.12,30.12,0,0,1,.61,6.05s0,0,0,0c0,.64,0,1.33-.1,2.11a30.21,30.21,0,0,1,26.08,28.75H133a1,1,0,0,1,0,2h4a1,1,0,0,1,0-2h5a1,1,0,0,1,0,2h4.9a1.5,1.5,0,1,1,2.22,0h98.11A.35.35,0,0,1,247,91.33Zm-82.85-25.5a1.5,1.5,0,1,1,1.5-1.5A1.5,1.5,0,0,1,164.18,65.83ZM166,53a28.29,28.29,0,0,0-.74,6.43,1,1,0,0,1-2,0,30.28,30.28,0,0,1,.79-6.89A1,1,0,0,1,166,53Z"/></g></g></svg>