<svg xmlns="http://www.w3.org/2000/svg" viewBox="0 0 1281.93 92.23"><defs><style>.cls-1{fill:#55b3f2;}.cls-2{fill:#fff;}</style></defs><title>background_clouds</title><g id="Layer_2" data-name="Layer 2"><g id="clouds"><path class="cls-1" d="M777.4,89.62h-5a1,1,0,0,0,0,2h5a1,1,0,0,0,0-2Z"/><circle class="cls-1" cx="783.41" cy="90.62" r="1.5"/><path class="cls-1" d="M898.4,89.66H884.35a30.22,30.22,0,0,0-26.06-28.07c.05-.75.08-1.5.08-2.21A30,30,0,0,0,811.7,34.54,35.66,35.66,0,0,0,743,22.27a16.17,16.17,0,0,0-1.94-.12,17.54,17.54,0,0,0-17.4,15.55,29.67,29.67,0,0,0-21.24-9h-.06a29.79,29.79,0,0,0-24.56,13l-.17.24-.3.47c-.16.25-.33.5-.48.76h0a29.75,29.75,0,0,0-3.71,9.47,30.12,30.12,0,0,0-.61,6.05s0,0,0,0c0,.64,0,1.33.1,2.11a30.21,30.21,0,0,0-26.08,28.75H636.38a1,1,0,0,0,0,2h12.15v-1a28.16,28.16,0,0,1,25.27-27.87l1-.09-.11-1a28.92,28.92,0,0,1-.18-3,28.06,28.06,0,0,1,.32-4.25v0q.1-.66.23-1.3a27.88,27.88,0,0,1,4-9.64l.22-.35.23-.32a27.78,27.78,0,0,1,45.74,0l.23.32.22.35a27.88,27.88,0,0,1,4,9.64q.13.65.23,1.3v0a28.06,28.06,0,0,1,.32,4.25,28.92,28.92,0,0,1-.18,3l-.11,1,1,.09a28.16,28.16,0,0,1,25.27,27.87v1H768.4a1,1,0,0,0,0-2H758.23a30.21,30.21,0,0,0-26.08-28.75c.06-.77.09-1.47.1-2.11,0,0,0,0,0,0a30.12,30.12,0,0,0-.61-6.05,29.75,29.75,0,0,0-3.71-9.47h0c-.16-.26-.32-.51-.48-.76l-.3-.47-.17-.24c-.49-.71-1-1.39-1.56-2.05h.13A15.41,15.41,0,0,1,743.5,24.36l.8.13.29-.76a33.67,33.67,0,0,1,65.15,11.94h.43a29.9,29.9,0,0,0-9.51,12.63,1,1,0,0,0,1.86.74,27.93,27.93,0,0,1,53.87,10.34,29.5,29.5,0,0,1-.16,3l-.1,1,1,.09a28.17,28.17,0,0,1,25.29,27.48,2.45,2.45,0,0,0,0,.32s0,0,0,.07h0c0,.2.14.33.44.33H898.4a1,1,0,0,0,0-2Z"/><path class="cls-1" d="M800.59,51.8a1,1,0,0,0-1.2.75,30.28,30.28,0,0,0-.79,6.89,1,1,0,1,0,2,0,28.29,28.29,0,0,1,.74-6.43A1,1,0,0,0,800.59,51.8Z"/><circle class="cls-1" cx="799.57" cy="64.33" r="1.5"/><path class="cls-2" d="M731,62.75l-1-.09.11-1a28.92,28.92,0,0,0,.18-3,28.06,28.06,0,0,0-.32-4.25v0q-.1-.66-.23-1.3a27.88,27.88,0,0,0-4-9.64l-.22-.35-.23-.32a27.78,27.78,0,0,0-45.74,0l-.23.32-.22.35a27.88,27.88,0,0,0-4,9.64q-.13.65-.23,1.3v0a28.06,28.06,0,0,0-.32,4.25,28.92,28.92,0,0,0,.18,3l.11,1-1,.09a28.16,28.16,0,0,0-25.27,27.87v1H756.25v-1A28.16,28.16,0,0,0,731,62.75Z"/><path class="cls-2" d="M882.41,91.33h0s0,0,0-.07a2.45,2.45,0,0,1,0-.32,28.17,28.17,0,0,0-25.29-27.48l-1-.09.1-1a29.5,29.5,0,0,0,.16-3A27.93,27.93,0,0,0,802.5,49a1,1,0,0,1-1.86-.74,29.9,29.9,0,0,1,9.51-12.63h-.43a33.67,33.67,0,0,0-65.15-11.94l-.29.76-.8-.13a15.41,15.41,0,0,0-17.95,15.31h-.13c.55.66,1.07,1.34,1.56,2.05l.17.24.3.47c.16.25.33.5.48.76h0a29.75,29.75,0,0,1,3.71,9.47,30.12,30.12,0,0,1,.61,6.05s0,0,0,0c0,.64,0,1.33-.1,2.11a30.21,30.21,0,0,1,26.08,28.75H768.4a1,1,0,0,1,0,2h4a1,1,0,0,1,0-2h5a1,1,0,0,1,0,2h4.9a1.5,1.5,0,1,1,2.22,0h98.11A.35.35,0,0,1,882.41,91.33Zm-82.85-25.5a1.5,1.5,0,1,1,1.5-1.5A1.5,1.5,0,0,1,799.57,65.83ZM801.34,53a28.29,28.29,0,0,0-.74,6.43,1,1,0,1,1-2,0,30.28,30.28,0,0,1,.79-6.89,1,1,0,1,1,1.95.46Z"/><path class="cls-2" d="M731,62.86l-1-.09.11-1a28.92,28.92,0,0,0,.18-3,28.06,28.06,0,0,0-.32-4.25v0q-.1-.66-.23-1.3a27.88,27.88,0,0,0-4-9.64l-.22-.35-.23-.32a27.78,27.78,0,0,0-45.74,0l-.23.32-.22.35a27.88,27.88,0,0,0-4,9.64q-.13.65-.23,1.3v0a28.06,28.06,0,0,0-.32,4.25,28.92,28.92,0,0,0,.18,3l.11,1-1,.09a28.16,28.16,0,0,0-25.27,27.87v1H756.26v-1A28.16,28.16,0,0,0,731,62.86Z"/><path class="cls-1" d="M777.41,89.73h-5a1,1,0,0,0,0,2h5a1,1,0,0,0,0-2Z"/><circle class="cls-1" cx="783.42" cy="90.73" r="1.5"/><path class="cls-1" d="M768.41,89.73H758.25A30.21,30.21,0,0,0,732.17,61c.06-.77.09-1.47.1-2.11,0,0,0,0,0,0a30.12,30.12,0,0,0-.61-6.05A29.75,29.75,0,0,0,728,43.31h0c-.16-.26-.32-.51-.48-.76l-.3-.47-.17-.24a29.79,29.79,0,0,0-24.56-13h-.06a29.79,29.79,0,0,0-24.56,13l-.17.24-.3.47c-.16.25-.33.5-.48.76h0a29.75,29.75,0,0,0-3.71,9.47,30.12,30.12,0,0,0-.61,6.05s0,0,0,0c0,.64,0,1.33.1,2.11a30.21,30.21,0,0,0-26.08,28.75H636.4a1,1,0,0,0,0,2h12.15v-1a28.16,28.16,0,0,1,25.27-27.87l1-.09-.11-1a28.92,28.92,0,0,1-.18-3,28.06,28.06,0,0,1,.32-4.25v0q.1-.66.23-1.3a27.88,27.88,0,0,1,4-9.64l.22-.35.23-.32a27.78,27.78,0,0,1,45.74,0l.23.32.22.35a27.88,27.88,0,0,1,4,9.64q.13.65.23,1.3v0a28.06,28.06,0,0,1,.32,4.25,28.92,28.92,0,0,1-.18,3l-.11,1,1,.09a28.16,28.16,0,0,1,25.27,27.87v1h12.15a1,1,0,0,0,0-2Z"/><circle class="cls-1" cx="938.22" cy="90.66" r="1.5"/><path class="cls-1" d="M1058.21,89.66h-24.86a16.33,16.33,0,0,0-15-14.94,35.66,35.66,0,0,0-68.69-12.12,16.17,16.17,0,0,0-1.94-.12,17.5,17.5,0,0,0-17.46,16.19,12.95,12.95,0,0,0-17.82,11H887.56a1,1,0,0,0,0,2h26.82v-1h0a11,11,0,0,1,21.33-3.55,1,1,0,0,0,1.89-.65,12.94,12.94,0,0,0-5.4-6.79,15.4,15.4,0,0,1,17.93-15l.8.13.29-.76a33.66,33.66,0,0,1,65.13,11.14,1.4,1.4,0,0,0,1,1.8,1,1,0,0,0,.7-.29,14.26,14.26,0,0,1,13.3,14v1h26.82a1,1,0,0,0,0-2Z"/><path class="cls-2" d="M1018.09,76.7a1,1,0,0,1-.7.29,1,1,0,0,1-1-.77.91.91,0,0,1-.07-1A33.66,33.66,0,0,0,951.24,64l-.29.76-.8-.13a15.48,15.48,0,0,0-17.93,15,12.94,12.94,0,0,1,5.4,6.79,1,1,0,0,1-1.89.65,11,11,0,0,0-21.33,3.55h0v1h22.72a1.5,1.5,0,1,1,2.22,0h92.06v-1A14.26,14.26,0,0,0,1018.09,76.7Z"/><path class="cls-1" d="M1280.93,89.66h-76.34c-.48-13.74-10.81-23.94-26.12-25.75,0-.71.07-1.46.07-2.2a30,30,0,0,0-30-29.92,29.62,29.62,0,0,0-27.49,17.59c-.36-.09-.72-.19-1.09-.27a33.07,33.07,0,0,0-39,23.61,17.48,17.48,0,0,0-20.24,17h-26.34a1,1,0,0,0,0,2h28.32V90h0a15.38,15.38,0,0,1,17.8-15.33,33.23,33.23,0,0,0-.69,6.7,1,1,0,1,0,2,0A31.06,31.06,0,0,1,1119.58,51q.92.2,1.81.46a.92.92,0,0,0,.15,0l.18,0a1,1,0,0,0,.21,0l.16-.05a1,1,0,0,0,.17-.12,1,1,0,0,0,.13-.11,1,1,0,0,0,.11-.17.94.94,0,0,0,.08-.12,27.61,27.61,0,0,1,26-17.13,28,28,0,0,1,28,27.92,29.39,29.39,0,0,1-.15,3l-.11,1,1,.09c15.14,1.42,25.31,11.41,25.31,24.87v1h78.33a1,1,0,0,0,0-2Z"/><circle class="cls-1" cx="1080.94" cy="86.66" r="1.5"/><path class="cls-2" d="M1177.3,65.79l-1-.09.11-1a29.39,29.39,0,0,0,.15-3,28,28,0,0,0-28-27.92,27.61,27.61,0,0,0-26,17.13.94.94,0,0,1-.08.12,1,1,0,0,1-.11.17,1,1,0,0,1-.13.11,1,1,0,0,1-.17.12l-.16.05a1,1,0,0,1-.21,0l-.18,0a.92.92,0,0,1-.15,0q-.9-.25-1.81-.46a31,31,0,0,0-37.73,30.31,1,1,0,1,1-2,0,33.23,33.23,0,0,1,.69-6.7A15.49,15.49,0,0,0,1062.75,90h0v1.65h139.86v-1C1202.61,77.2,1192.44,67.21,1177.3,65.79Zm-96.36,22.37a1.5,1.5,0,1,1,1.5-1.5A1.5,1.5,0,0,1,1080.94,88.16Z"/><path class="cls-1" d="M344.63,62.82a1,1,0,0,0,1-1,30.23,30.23,0,0,0-.79-6.89,1,1,0,0,0-1.95.46,28.22,28.22,0,0,1,.74,6.43A1,1,0,0,0,344.63,62.82Z"/><path class="cls-1" d="M522.81,89.73H498.48l0,0a12.95,12.95,0,0,0-17.82-11,17.5,17.5,0,0,0-17.46-16.19,16.17,16.17,0,0,0-1.94.12A35.65,35.65,0,0,0,420.64,41.2a17.52,17.52,0,0,0-17.47-16.66,16.13,16.13,0,0,0-1.94.12,35.66,35.66,0,0,0-68.69,12.21,30,30,0,0,0-46.64,24.89c0,.75,0,1.49.07,2.2-15.31,1.81-25.64,12-26.12,25.75H235.5a1,1,0,0,0,0,2h26.32v-1c0-13.45,10.17-23.45,25.31-24.87l1-.09-.1-1a29.54,29.54,0,0,1-.15-3,28,28,0,0,1,53.95-10.34,1,1,0,1,0,1.86-.74,29.87,29.87,0,0,0-9.53-12.63h.33a33.67,33.67,0,0,1,65.15-11.94l.29.76.8-.13a15.39,15.39,0,0,1,17.93,14.94,35.81,35.81,0,0,0-24.58,23.86c-7.38,0-14.09,3.86-18.39,10.59a1,1,0,1,0,1.68,1.08c3.82-6,9.69-9.45,16.16-9.65a35.6,35.6,0,0,0-1,8.49,1,1,0,1,0,2,0,33.67,33.67,0,0,1,65.15-11.94l.29.76.8-.13a15.48,15.48,0,0,1,17.93,15,12.94,12.94,0,0,0-5.4,6.79,1,1,0,1,0,1.89.65,11,11,0,0,1,21.33,3.55h0v1h26.32a1,1,0,0,0,0-2Z"/><circle class="cls-1" cx="344.51" cy="66.73" r="1.5"/><circle class="cls-1" cx="373.51" cy="80.73" r="1.5"/><circle class="cls-1" cx="472.51" cy="90.73" r="1.5"/><path class="cls-2" d="M496.49,90.73a11,11,0,0,0-21.33-3.55,1,1,0,1,1-1.89-.65,12.94,12.94,0,0,1,5.4-6.79,15.4,15.4,0,0,0-17.93-15l-.8.13-.29-.76a33.67,33.67,0,0,0-65.15,11.94,1,1,0,1,1-2,0,35.6,35.6,0,0,1,1-8.49c-6.47.2-12.34,3.68-16.16,9.65a1,1,0,1,1-1.68-1.08c4.31-6.72,11-10.58,18.39-10.59a35.81,35.81,0,0,1,24.58-23.86,15.39,15.39,0,0,0-17.93-14.94l-.8.13-.29-.76a33.67,33.67,0,0,0-65.15,11.94h-.33a29.87,29.87,0,0,1,9.53,12.63,1,1,0,1,1-1.86.74,28,28,0,0,0-53.95,10.34,29.54,29.54,0,0,0,.15,3l.1,1-1,.09C272,67.28,261.82,77.27,261.82,90.73v1H471.4a1.5,1.5,0,1,1,2.22,0H496.5v-1ZM343.63,54.19a1,1,0,0,1,1.2.75,30.23,30.23,0,0,1,.79,6.89,1,1,0,1,1-2,0,28.22,28.22,0,0,0-.74-6.43A1,1,0,0,1,343.63,54.19Zm.88,14a1.5,1.5,0,1,1,1.5-1.5A1.5,1.5,0,0,1,344.51,68.23Zm29,14a1.5,1.5,0,1,1,1.5-1.5A1.5,1.5,0,0,1,373.51,82.23Z"/><circle class="cls-1" cx="78.01" cy="87.11" r="1.5"/><path class="cls-1" d="M105,90.23h9a1,1,0,0,1,0,2H102a1.11,1.11,0,0,1-1-1.12A11,11,0,0,0,81.44,84.2a1,1,0,1,1-1.55-1.26A13,13,0,0,1,84,79.56,18.06,18.06,0,0,0,52.2,91.23v1H1a1,1,0,0,1,0-2H50.23A20.05,20.05,0,0,1,86,78.76a13,13,0,0,1,17,11.47H105"/><path class="cls-2" d="M102,92.23a1.11,1.11,0,0,1-1-1.12A11,11,0,0,0,81.44,84.2a1,1,0,1,1-1.55-1.26A13,13,0,0,1,84,79.56,18.06,18.06,0,0,0,52.21,91.23v1M78,88.61a1.5,1.5,0,1,1,1.5-1.5A1.5,1.5,0,0,1,78,88.61Z"/><circle class="cls-1" cx="170.01" cy="63.23" r="1.5"/><path class="cls-1" d="M255.11,90.23h-19a25.16,25.16,0,0,0-22.16-23.84,18.18,18.18,0,0,0-12.8-12,23.31,23.31,0,0,0-46.62-.16,20.81,20.81,0,0,0-22.1,17.18,19.57,19.57,0,0,0-17.34,18.77H103a1,1,0,0,0,0,2h14.06v-1A17.66,17.66,0,0,1,133,73.39a1,1,0,0,0,.53-.26,1,1,0,0,0,.79-.82,18.88,18.88,0,0,1,32-10.6,1,1,0,0,0,1.41-1.42,20.75,20.75,0,0,0-11.2-5.77,21.31,21.31,0,0,1,42.62.33l0,1.19.81.17A16.19,16.19,0,0,1,212.21,67.6l.19.66.69.06a23.13,23.13,0,0,1,21,22.89v0a1,1,0,0,0,1,1h20a1,1,0,0,0,0-2Z"/><path class="cls-2" d="M234.11,91.23v0a23.13,23.13,0,0,0-21-22.89l-.69-.06-.19-.66a16.19,16.19,0,0,0-12.29-11.39l-.81-.17,0-1.19a21.31,21.31,0,0,0-42.62-.33,20.75,20.75,0,0,1,11.2,5.77,1,1,0,0,1-1.41,1.42,18.88,18.88,0,0,0-32,10.6,1,1,0,0,1-.79.82,1,1,0,0,1-.53.26,17.66,17.66,0,0,0-15.91,17.83v1h118A1,1,0,0,1,234.11,91.23ZM170,64.73a1.5,1.5,0,1,1,1.5-1.5A1.5,1.5,0,0,1,170,64.73Z"/><path class="cls-1" d="M682.16,89.73H662.8c-.4-8-5.46-16.76-13.13-22.68a34.83,34.83,0,0,0-29.43-6.48c0-.63.06-1.23.06-1.79a30.14,30.14,0,0,0-60.29,0c0,.56,0,1.16.06,1.79A34.83,34.83,0,0,0,530.65,67C523,73,517.92,81.77,517.52,89.73H498.16a1,1,0,0,0,0,2H519.5v-1c0-7.62,4.86-16.29,12.37-22.1a33,33,0,0,1,29.07-5.8l1.4.37-.15-1.44a28.48,28.48,0,0,1-.17-3,28.14,28.14,0,0,1,56.29,0,28.48,28.48,0,0,1-.17,3L618,63.2l1.4-.37a33,33,0,0,1,29.07,5.8c7.52,5.81,12.37,14.48,12.37,22.1v1h21.33a1,1,0,0,0,0-2Z"/><path class="cls-2" d="M648.45,68.63a33,33,0,0,0-29.07-5.8l-1.4.37.15-1.44a28.48,28.48,0,0,0,.17-3,28.14,28.14,0,0,0-56.29,0,28.48,28.48,0,0,0,.17,3l.15,1.44-1.4-.37a33,33,0,0,0-29.07,5.8c-7.52,5.81-12.37,14.48-12.37,22.1v1H660.82v-1C660.82,83.11,656,74.44,648.45,68.63Z"/><path class="cls-1" d="M945.65,64.87a15.55,15.55,0,0,1,2-.31V62.14a21.89,21.89,0,0,0-21.42-20c.06-.64.08-1.27.08-1.89a22,22,0,0,0-44-1l-.74,0a9.32,9.32,0,0,0-9.31,9.31,8.94,8.94,0,0,0,.08,1.16,17.09,17.09,0,0,0-15.17,11.71c-.06.18-.12.35-.18.53l0,.11c-.07.43-.16.89-.25,1.31q1,.23,1.95.52a28.24,28.24,0,0,1,19.8,26.77v1h36.33a1,1,0,0,0,1-1,11,11,0,0,1,21.33-3.55,1,1,0,0,0,1.89-.65,12.94,12.94,0,0,0-5.4-6.79,15.5,15.5,0,0,1,12-14.81ZM935.48,69a17.57,17.57,0,0,0-3.82,9.66,13,13,0,0,0-17.82,11H880.45A30.28,30.28,0,0,0,859.1,61.94a15.08,15.08,0,0,1,14.26-10.26h.17l1.32,0-.34-1.27a7.31,7.31,0,0,1,12.65-6.59,1,1,0,0,0,1.53-1.29,9.31,9.31,0,0,0-4.4-2.91A20,20,0,1,1,924.12,43L924,44.17l1.36,0h.41a19.89,19.89,0,0,1,19.93,18.1v.61A17.43,17.43,0,0,0,935.48,69Z"/><circle class="cls-1" cx="891.76" cy="46.94" r="1.5"/><path class="cls-2" d="M925.74,44.12h-.41l-1.36,0,.16-1.17a20,20,0,1,0-39.83-3.36,9.31,9.31,0,0,1,4.4,2.91,1,1,0,0,1-1.53,1.29,7.3,7.3,0,0,0-12.65,6.59l.34,1.27-1.32,0h-.17a15.08,15.08,0,0,0-14.26,10.26,30.28,30.28,0,0,1,21.35,27.72h33.39a13,13,0,0,1,17.82-11,17.46,17.46,0,0,1,14-15.83v-.61A19.89,19.89,0,0,0,925.74,44.12Zm-34,4.32a1.5,1.5,0,1,1,1.5-1.5A1.5,1.5,0,0,1,891.78,48.44Z"/></g></g></svg>