<svg xmlns="http://www.w3.org/2000/svg" viewBox="0 0 90.94 73.44"><defs><style>.cls-1{fill:#55b3f2;}.cls-2{fill:#fff;}</style></defs><title>background_cloud_3</title><g id="Layer_2" data-name="Layer 2"><g id="clouds"><path class="cls-1" d="M88.94,46.64a15.55,15.55,0,0,1,2-.31V43.91a21.89,21.89,0,0,0-21.42-20c.06-.64.08-1.27.08-1.89a22,22,0,0,0-44-1l-.74,0a9.32,9.32,0,0,0-9.31,9.31,8.94,8.94,0,0,0,.08,1.16A17.09,17.09,0,0,0,.45,43.19c-.06.18-.12.35-.18.53l0,.11c-.07.43-.16.89-.25,1.31q1,.23,1.95.52a28.24,28.24,0,0,1,19.8,26.77v1H58.08a1,1,0,0,0,1-1,11,11,0,0,1,21.33-3.55,1,1,0,0,0,1.89-.65,12.94,12.94,0,0,0-5.4-6.79,15.5,15.5,0,0,1,12-14.81ZM78.77,50.78A17.57,17.57,0,0,0,75,60.44a13,13,0,0,0-17.82,11H23.74A30.28,30.28,0,0,0,2.39,43.71,15.08,15.08,0,0,1,16.64,33.46h.17l1.32,0-.34-1.27a7.31,7.31,0,0,1,12.65-6.59A1,1,0,0,0,32,24.33a9.31,9.31,0,0,0-4.4-2.91,20,20,0,1,1,39.83,3.36l-.16,1.17,1.36,0H69A19.89,19.89,0,0,1,88.94,44v.61A17.43,17.43,0,0,0,78.77,50.78Z"/><circle class="cls-1" cx="35.05" cy="28.72" r="1.5"/><path class="cls-2" d="M69,25.9h-.41l-1.36,0,.16-1.17A20,20,0,1,0,27.6,21.42,9.31,9.31,0,0,1,32,24.33a1,1,0,0,1-1.53,1.29,7.3,7.3,0,0,0-12.65,6.59l.34,1.27-1.32,0h-.17A15.08,15.08,0,0,0,2.4,43.71,30.28,30.28,0,0,1,23.75,71.44H57.15A13,13,0,0,1,75,60.44,17.46,17.46,0,0,1,89,44.62V44A19.89,19.89,0,0,0,69,25.9Zm-34,4.32a1.5,1.5,0,1,1,1.5-1.5A1.5,1.5,0,0,1,35.06,30.22Z"/></g></g></svg>