<svg xmlns="http://www.w3.org/2000/svg" viewBox="0 0 154.11 60.69"><defs><style>.cls-1{fill:#55b3f2;}.cls-2{fill:#fff;}</style></defs><title>background_cloud_7</title><g id="Layer_2" data-name="Layer 2"><g id="clouds"><circle class="cls-1" cx="68.01" cy="31.69" r="1.5"/><path class="cls-1" d="M153.11,58.69h-19a25.16,25.16,0,0,0-22.16-23.84,18.18,18.18,0,0,0-12.8-12,23.31,23.31,0,0,0-46.62-.16,20.81,20.81,0,0,0-22.1,17.18A19.57,19.57,0,0,0,13.08,58.69H1a1,1,0,0,0,0,2H15.06v-1A17.66,17.66,0,0,1,31,41.86a1,1,0,0,0,.53-.26,1,1,0,0,0,.79-.82,18.88,18.88,0,0,1,32-10.6,1,1,0,0,0,1.41-1.42A20.75,20.75,0,0,0,54.52,23a21.31,21.31,0,0,1,42.62.33l0,1.19.81.17a16.19,16.19,0,0,1,12.29,11.39l.19.66.69.06a23.13,23.13,0,0,1,21,22.89v0a1,1,0,0,0,1,1h20a1,1,0,0,0,0-2Z"/><path class="cls-2" d="M132.11,59.69v0a23.13,23.13,0,0,0-21-22.89l-.69-.06-.19-.66A16.19,16.19,0,0,0,97.92,24.67l-.81-.17,0-1.19A21.31,21.31,0,0,0,54.52,23a20.75,20.75,0,0,1,11.2,5.77,1,1,0,0,1-1.41,1.42,18.88,18.88,0,0,0-32,10.6,1,1,0,0,1-.79.82,1,1,0,0,1-.53.26A17.66,17.66,0,0,0,15.06,59.69v1h118A1,1,0,0,1,132.11,59.69ZM68,33.19a1.5,1.5,0,1,1,1.5-1.5A1.5,1.5,0,0,1,68,33.19Z"/></g></g></svg>