<svg xmlns="http://www.w3.org/2000/svg" viewBox="0 0 248.51 59.88"><defs><style>.cls-1{fill:#55b3f2;}.cls-2{fill:#fff;}</style></defs><title>background_cloud_1</title><g id="Layer_2" data-name="Layer 2"><g id="clouds"><path class="cls-1" d="M247.51,57.88H171.16c-.48-13.74-10.81-23.94-26.12-25.75,0-.71.07-1.46.07-2.2A30,30,0,0,0,115.16,0,29.62,29.62,0,0,0,87.68,17.59c-.36-.09-.72-.19-1.09-.27a33.07,33.07,0,0,0-39,23.61,17.48,17.48,0,0,0-20.24,17H1a1,1,0,0,0,0,2H29.32V58.22h0a15.38,15.38,0,0,1,17.8-15.33,33.23,33.23,0,0,0-.69,6.7,1,1,0,0,0,2,0A31.06,31.06,0,0,1,86.16,19.27q.92.2,1.81.46a.92.92,0,0,0,.15,0l.18,0a1,1,0,0,0,.21,0l.16-.05a1,1,0,0,0,.17-.12,1,1,0,0,0,.13-.11,1,1,0,0,0,.11-.17.94.94,0,0,0,.08-.12A27.61,27.61,0,0,1,115.16,2a28,28,0,0,1,28,27.92,29.39,29.39,0,0,1-.15,3l-.11,1,1,.09c15.14,1.42,25.31,11.41,25.31,24.87v1h78.33a1,1,0,0,0,0-2Z"/><circle class="cls-1" cx="47.52" cy="54.88" r="1.5"/><path class="cls-2" d="M143.87,34l-1-.09.11-1a29.39,29.39,0,0,0,.15-3A28,28,0,0,0,115.16,2a27.61,27.61,0,0,0-26,17.13.94.94,0,0,1-.08.12,1,1,0,0,1-.11.17,1,1,0,0,1-.13.11,1,1,0,0,1-.17.12l-.16.05a1,1,0,0,1-.21,0l-.18,0a.92.92,0,0,1-.15,0q-.9-.25-1.81-.46A31,31,0,0,0,48.43,49.58a1,1,0,0,1-2,0,33.23,33.23,0,0,1,.69-6.7,15.49,15.49,0,0,0-17.8,15.33h0v1.65H169.18v-1C169.18,45.42,159,35.43,143.87,34ZM47.52,56.38a1.5,1.5,0,1,1,1.5-1.5A1.5,1.5,0,0,1,47.52,56.38Z"/></g></g></svg>