<svg xmlns="http://www.w3.org/2000/svg" viewBox="0 0 289.31 89.83"><defs><style>.cls-1{fill:#55b3f2;}.cls-2{fill:#fff;}</style></defs><title>background_cloud_6</title><g id="Layer_2" data-name="Layer 2"><g id="clouds"><path class="cls-1" d="M110.12,60.43a1,1,0,0,0,1-1,30.23,30.23,0,0,0-.79-6.89,1,1,0,0,0-1.95.46,28.22,28.22,0,0,1,.74,6.43A1,1,0,0,0,110.12,60.43Z"/><path class="cls-1" d="M288.31,87.33H264l0,0a12.95,12.95,0,0,0-17.82-11,17.5,17.5,0,0,0-17.46-16.19,16.17,16.17,0,0,0-1.94.12,35.65,35.65,0,0,0-40.58-21.47,17.52,17.52,0,0,0-17.47-16.66,16.13,16.13,0,0,0-1.94.12A35.66,35.66,0,0,0,98,34.48,30,30,0,0,0,51.38,59.38c0,.75,0,1.49.07,2.2-15.31,1.81-25.64,12-26.12,25.75H1a1,1,0,0,0,0,2H27.32v-1c0-13.45,10.17-23.45,25.31-24.87l1-.09-.1-1a29.54,29.54,0,0,1-.15-3A28,28,0,0,1,107.33,49a1,1,0,1,0,1.86-.74,29.87,29.87,0,0,0-9.53-12.63H100a33.67,33.67,0,0,1,65.15-11.94l.29.76.8-.13a15.39,15.39,0,0,1,17.93,14.94,35.81,35.81,0,0,0-24.58,23.86c-7.38,0-14.09,3.86-18.39,10.59a1,1,0,1,0,1.68,1.08c3.82-6,9.69-9.45,16.16-9.65a35.6,35.6,0,0,0-1,8.49,1,1,0,0,0,2,0,33.67,33.67,0,0,1,65.15-11.94l.29.76.8-.13a15.48,15.48,0,0,1,17.93,15,12.94,12.94,0,0,0-5.4,6.79,1,1,0,1,0,1.89.65A11,11,0,0,1,262,88.33h0v1h26.32a1,1,0,0,0,0-2Z"/><circle class="cls-1" cx="110.01" cy="64.33" r="1.5"/><circle class="cls-1" cx="139.01" cy="78.33" r="1.5"/><circle class="cls-1" cx="238.01" cy="88.33" r="1.5"/><path class="cls-2" d="M262,88.33a11,11,0,0,0-21.33-3.55,1,1,0,1,1-1.89-.65,12.94,12.94,0,0,1,5.4-6.79,15.4,15.4,0,0,0-17.93-15l-.8.13-.29-.76A33.67,33.67,0,0,0,160,73.67a1,1,0,0,1-2,0,35.6,35.6,0,0,1,1-8.49c-6.47.2-12.34,3.68-16.16,9.65a1,1,0,1,1-1.68-1.08c4.31-6.72,11-10.58,18.39-10.59a35.81,35.81,0,0,1,24.58-23.86,15.39,15.39,0,0,0-17.93-14.94l-.8.13-.29-.76A33.67,33.67,0,0,0,100,35.67h-.33a29.87,29.87,0,0,1,9.53,12.63,1,1,0,1,1-1.86.74A28,28,0,0,0,53.38,59.38a29.54,29.54,0,0,0,.15,3l.1,1-1,.09C37.49,64.89,27.32,74.88,27.32,88.33v1H236.9a1.5,1.5,0,1,1,2.22,0H262v-1ZM109.13,51.8a1,1,0,0,1,1.2.75,30.23,30.23,0,0,1,.79,6.89,1,1,0,0,1-2,0,28.22,28.22,0,0,0-.74-6.43A1,1,0,0,1,109.13,51.8Zm.88,14a1.5,1.5,0,1,1,1.5-1.5A1.5,1.5,0,0,1,110,65.83Zm29,14a1.5,1.5,0,1,1,1.5-1.5A1.5,1.5,0,0,1,139,79.83Z"/></g></g></svg>