<svg xmlns="http://www.w3.org/2000/svg" viewBox="0 0 120 58.5"><defs><style>.cls-1{fill:#55b3f2;}.cls-2{fill:#fff;}.cls-3{fill:#999;}.cls-4{fill:#369ed8;}</style></defs><title>box_top</title><g id="Layer_2" data-name="Layer 2"><g id="box"><path class="cls-1" d="M79.5,0C69.43,0,60.75,7.92,60.75,17.86V36.75H78c10.07,0,20.25-8.81,20.25-18.75S89.57,0,79.5,0Zm-.62,25.93H71.79V18.16a7.72,7.72,0,0,1,15.42.06C87.21,22.31,83,25.93,78.88,25.93Z"/><path class="cls-1" d="M42,0C31.93,0,23.25,8.06,23.25,18S33.43,36.75,43.5,36.75H60.75V17.86C60.75,7.92,52.07,0,42,0Zm7.71,25.93H42.62c-4.14,0-8.33-3.62-8.33-7.71a7.72,7.72,0,0,1,15.42-.06Z"/><rect class="cls-2" x="71.75" y="36.5" width="47.75" height="21.5"/><path class="cls-3" d="M119,37V57.5H72.25V37H119m1-1H71.25V58.5H120V36Z"/><rect class="cls-4" x="47.63" y="34.79" width="24.94" height="1.27"/><rect class="cls-2" x="0.5" y="36.5" width="47.75" height="21.5"/><path class="cls-3" d="M47.75,37V57.5H1V37H47.75m1-1H0V58.5H48.75V36Z"/><rect class="cls-1" x="47.63" y="36" width="24.94" height="22.5"/></g></g></svg>