<svg xmlns="http://www.w3.org/2000/svg" viewBox="0 0 21.72 19.79"><defs><style>.cls-1{fill:#f9c07d;}</style></defs><title>bubble_yellow</title><g id="Layer_2" data-name="Layer 2"><g id="box"><path class="cls-1" d="M9.18,10.82a4.87,4.87,0,1,1-6.59-2A4.88,4.88,0,0,1,9.18,10.82ZM2.56,14.34a2.63,2.63,0,1,0,1.09-3.55A2.63,2.63,0,0,0,2.56,14.34Z"/><path class="cls-1" d="M21.37,15.38a3,3,0,1,1-4.06-1.24A3,3,0,0,1,21.37,15.38Zm-3.31,1.76a.75.75,0,1,0,.31-1A.75.75,0,0,0,18.06,17.14Z"/><path class="cls-1" d="M17.13,1.59A3,3,0,1,1,13.07.35,3,3,0,0,1,17.13,1.59ZM13.82,3.35a.75.75,0,1,0,.31-1A.75.75,0,0,0,13.82,3.35Z"/></g></g></svg>