<svg xmlns="http://www.w3.org/2000/svg" viewBox="0 0 206.73 100.5"><defs><style>.cls-1{fill:#fff;}.cls-1,.cls-3{stroke:#55b3f2;stroke-linecap:round;stroke-linejoin:round;stroke-width:2px;}.cls-2{fill:#55b3f2;}.cls-3{fill:none;}</style></defs><title>cloud_6</title><g id="Layer_2" data-name="Layer 2"><g id="clouds"><path class="cls-1" d="M187,31.15a23.25,23.25,0,0,0-12.73.92,13.76,13.76,0,0,0-15.8-9,23.37,23.37,0,0,0-33.06-8.65c-.66-.69-1.34-1.37-2.05-2A39.85,39.85,0,0,0,96.5,2h0c-.6,0-1.2,0-1.8,0l-.57,0-1.23.09-.64.06-1.18.14-.6.08-1.41.24-.32.06c-.56.11-1.12.23-1.67.37l-.57.15-1.1.3-.67.2-1,.32-.67.23-1,.38-.59.23q-.74.3-1.46.63l-.68.32-.82.4-.76.39-.7.38-.78.44-.62.38-.81.5-.2.13q-1,.64-1.92,1.34l-.4.29-.86.68-.4.32-.86.73-.3.26a40.23,40.23,0,0,0-3.86,3.95l-.13.15q-.44.52-.85,1l-.09.11a40,40,0,0,0-4,6.16h0a39.76,39.76,0,0,0-1.85,4.09A23.39,23.39,0,0,0,44.5,22.5h-.09A23.58,23.58,0,0,0,20.83,46h0c0,.52.11,1,.14,1.55,0,.13.06.25.07.38,0,.45.11.89.17,1.33,0,.06,0,.13,0,.19a23.35,23.35,0,0,0,.7,3.15v0A23.5,23.5,0,0,0,24.5,99.5H126.82a23.49,23.49,0,0,0,23.13-22h32.4A23.41,23.41,0,0,0,187,31.15Z"/><circle class="cls-2" cx="56.83" cy="46.5" r="1.5"/><circle class="cls-2" cx="32.83" cy="66.5" r="1.5"/><path class="cls-3" d="M56.5,41q0-1.53.11-3a40,40,0,0,1,79.89,3"/><path class="cls-3" d="M28.29,62A23.5,23.5,0,0,1,44.5,21.5"/><path class="cls-3" d="M150,75a23.51,23.51,0,0,0-15.32-22A40,40,0,0,0,59.17,26.64,23.5,23.5,0,0,0,22,51.64,23.5,23.5,0,0,0,24.5,98.5H126.82A23.5,23.5,0,0,0,150,75Z"/></g></g></svg>