<svg xmlns="http://www.w3.org/2000/svg" viewBox="0 0 151 99.5"><defs><style>.cls-1{fill:#fff;}.cls-1,.cls-3{stroke:#55b3f2;stroke-linecap:round;stroke-linejoin:round;stroke-width:2px;}.cls-2{fill:#55b3f2;}.cls-3{fill:none;}</style></defs><title>cloud_4</title><g id="Layer_2" data-name="Layer 2"><g id="clouds"><path class="cls-1" d="M150,75a23.51,23.51,0,0,0-15.32-22A40,40,0,0,0,59.16,26.64,23.5,23.5,0,0,0,22,51.64,23.5,23.5,0,0,0,24.5,98.5H126.82A23.5,23.5,0,0,0,150,75Z"/><circle class="cls-2" cx="56.83" cy="46.5" r="1.5"/><circle class="cls-2" cx="32.83" cy="66.5" r="1.5"/><path class="cls-3" d="M56.5,41q0-1.53.11-3a40,40,0,0,1,79.89,3"/><path class="cls-3" d="M28.29,62A23.5,23.5,0,0,1,44.5,21.5"/></g></g></svg>