<svg xmlns="http://www.w3.org/2000/svg" viewBox="0 0 35.53 35.65"><defs><style>.cls-1{fill:#e6e6e6;}.cls-2{fill:#ccc;}.cls-3{fill:#666;}.cls-4{fill:none;stroke:#666;stroke-linecap:round;stroke-linejoin:round;}.cls-5{fill:#ffafa4;}.cls-6{fill:#ffd1cc;}.cls-7{fill:#ff8080;}.cls-8{fill:#ffb3b3;}</style></defs><title>cupcake</title><g id="Layer_2" data-name="Layer 2"><g id="box"><path class="cls-1" d="M27.62,23.18a2.63,2.63,0,0,0-3.72-.1,2.7,2.7,0,0,0-3.82-3.82,2.7,2.7,0,0,0-3.82-3.82,2.7,2.7,0,0,0-3.82-3.82,2.63,2.63,0,0,0-.1-3.72,2.63,2.63,0,0,0-3.72-.1L0,21,14.51,35.53,27.72,26.9A2.63,2.63,0,0,0,27.62,23.18Z"/><path class="cls-2" d="M12.81,34.08l1.58,1.58L27.66,27a2.58,2.58,0,0,0,0-3.54Z"/><path class="cls-3" d="M10.39,8.09a1.76,1.76,0,0,1,1.24.53,1.64,1.64,0,0,1,.1,2.3l.71.71.71.71a1.48,1.48,0,0,1,1.06-.43A1.81,1.81,0,0,1,16,13.64a1.49,1.49,0,0,1-.43,1.1A1,1,0,0,0,17,16.15,1.48,1.48,0,0,1,18,15.73a1.81,1.81,0,0,1,1.77,1.73,1.49,1.49,0,0,1-.43,1.1l.71.71.71.71a1.48,1.48,0,0,1,1.06-.43,1.81,1.81,0,0,1,1.77,1.73,1.49,1.49,0,0,1-.43,1.1,1,1,0,0,0,1.41,1.41,1.48,1.48,0,0,1,1.06-.43,1.81,1.81,0,0,1,1.77,1.73,1.49,1.49,0,0,1-.37,1L14.64,34.25,1.28,20.89,9.4,8.46a1.49,1.49,0,0,1,1-.37h0m0-1a2.48,2.48,0,0,0-1.77.72L0,21,14.51,35.53,27.72,26.9a2.63,2.63,0,0,0-.1-3.72,2.76,2.76,0,0,0-2-.82,2.48,2.48,0,0,0-1.77.72,2.63,2.63,0,0,0-.1-3.72,2.77,2.77,0,0,0-2-.82,2.48,2.48,0,0,0-1.77.72,2.63,2.63,0,0,0-.1-3.72,2.77,2.77,0,0,0-2-.82,2.48,2.48,0,0,0-1.77.72,2.63,2.63,0,0,0-.1-3.72,2.77,2.77,0,0,0-2-.82,2.48,2.48,0,0,0-1.77.72,2.63,2.63,0,0,0-.1-3.72,2.76,2.76,0,0,0-2-.82Z"/><line class="cls-4" x1="23.5" y1="23.38" x2="11.95" y2="32.27"/><line class="cls-4" x1="12.24" y1="12.12" x2="3.35" y2="23.68"/><line class="cls-4" x1="15.77" y1="15.65" x2="6.17" y2="26.39"/><line class="cls-4" x1="19.73" y1="19.61" x2="9" y2="29.33"/><path class="cls-5" d="M30.36,19.59a4.47,4.47,0,0,0,1.35-.91c1.49-1.49,1-3.07,0-4.8C34,10.93,33.1,7.34,30.38,4.62S24.12,1,21.17,3.31c-1.75-1.21-3.46-1.75-5-.19a4.49,4.49,0,0,0-1,1.48,4.49,4.49,0,1,0-1.07,8.2,6.49,6.49,0,0,0,8.64,8.64,4.49,4.49,0,1,0,7.63-1.85Z"/><path class="cls-6" d="M30.36,19.59a4.47,4.47,0,0,0,1.35-.91c1.49-1.49,1-3.07,0-4.8C34,10.93,33.1,7.34,30.38,4.62a10.88,10.88,0,0,0-1.13-1c1.92,2.54,2.32,5.57.29,8.12,1,1.73,1.54,3.3,0,4.8a4.47,4.47,0,0,1-1.35.91A4.48,4.48,0,0,1,23,24.54a4.41,4.41,0,0,0,.87,1.26,4.49,4.49,0,0,0,6.49-6.21Z"/><path class="cls-4" d="M30.36,19.59a4.47,4.47,0,0,0,1.35-.91c1.49-1.49,1-3.07,0-4.8C34,10.93,33.1,7.34,30.38,4.62S24.12,1,21.17,3.31c-1.75-1.21-3.46-1.75-5-.19a4.49,4.49,0,0,0-1,1.48,4.49,4.49,0,1,0-1.07,8.2,6.49,6.49,0,0,0,8.64,8.64,4.49,4.49,0,1,0,7.63-1.85Z"/><circle class="cls-7" cx="31.53" cy="4" r="3.5" transform="translate(6.41 23.47) rotate(-45)"/><path class="cls-8" d="M34,1.53a3.46,3.46,0,0,0-.82-.59,3.48,3.48,0,0,1-4.72,4.72,3.46,3.46,0,0,0,.59.82A3.5,3.5,0,0,0,34,1.53Z"/><circle class="cls-4" cx="31.53" cy="4" r="3.5" transform="translate(6.41 23.47) rotate(-45)"/></g></g></svg>