<svg xmlns="http://www.w3.org/2000/svg" viewBox="0 0 33 29.07"><defs><style>.cls-1{fill:#ff8080;}.cls-2{fill:#ffafa4;}.cls-3{fill:none;stroke:#666;stroke-miterlimit:10;}</style></defs><title>heart</title><g id="Layer_2" data-name="Layer 2"><g id="box"><path class="cls-1" d="M.5,8.47A8.21,8.21,0,0,1,8.92.5,8.46,8.46,0,0,1,16.5,5,8.46,8.46,0,0,1,24.08.5a8.21,8.21,0,0,1,8.42,8c0,12.12-16,20-16,20S.5,19.2.5,8.47Z"/><path class="cls-2" d="M31.21,14.4A14.73,14.73,0,0,0,32.5,8.47a8.21,8.21,0,0,0-8.42-8,8.51,8.51,0,0,0-7.13,3.75L16.5,5.52C26.95-2.7,32.88,7.45,31.21,14.4Z"/><path class="cls-3" d="M.5,8.47A8.21,8.21,0,0,1,8.92.5,8.46,8.46,0,0,1,16.5,5,8.46,8.46,0,0,1,24.08.5a8.21,8.21,0,0,1,8.42,8c0,12.12-16,20-16,20S.5,19.2.5,8.47Z"/></g></g></svg>