<svg xmlns="http://www.w3.org/2000/svg" viewBox="0 0 20.34 12.59"><defs><style>.cls-1{fill:#7accc4;}</style></defs><title>line_green</title><g id="Layer_2" data-name="Layer 2"><g id="box"><path class="cls-1" d="M.56,12.44A1.12,1.12,0,0,0,2.1,12l2.25-3.9,3.57,2.06a1.12,1.12,0,0,0,1.54-.41l2.81-4.87L15.84,7a1.12,1.12,0,0,0,1.54-.41l2.81-4.87A1.13,1.13,0,0,0,18.24.56L16,4.46,12.42,2.4a1.12,1.12,0,0,0-1.54.41L8.07,7.68,4.5,5.62A1.12,1.12,0,0,0,3,6L.15,10.9A1.12,1.12,0,0,0,.56,12.44Z"/></g></g></svg>