<svg xmlns="http://www.w3.org/2000/svg" viewBox="0 0 12.22 12.22"><defs><style>.cls-1{fill:#ff8080;}</style></defs><title>spark_red</title><g id="Layer_2" data-name="Layer 2"><g id="box"><path class="cls-1" d="M6.11,4.5A1.43,1.43,0,0,1,5.05,4L2.68,1.41A.84.84,0,0,1,3.92.28L6.11,2.68,8.3.28A.84.84,0,1,1,9.55,1.41L7.17,4A1.43,1.43,0,0,1,6.11,4.5Z"/><path class="cls-1" d="M8.92,12.22a.84.84,0,0,1-.62-.28L6.11,9.54,3.92,11.95a.84.84,0,0,1-1.25-1.14L5.06,8.2a1.47,1.47,0,0,1,2.11,0l2.38,2.62a.84.84,0,0,1-.62,1.41Z"/><path class="cls-1" d="M11.38,9.77a.84.84,0,0,1-.57-.22L8.2,7.17a1.42,1.42,0,0,1,0-2.11l2.62-2.38a.84.84,0,0,1,1.14,1.25L9.54,6.11,11.95,8.3a.84.84,0,0,1-.57,1.47Z"/><path class="cls-1" d="M.84,9.77A.84.84,0,0,1,.28,8.3L2.68,6.11.28,3.92A.84.84,0,0,1,1.41,2.68L4,5.06A1.42,1.42,0,0,1,4,7.17L1.41,9.55A.84.84,0,0,1,.84,9.77Z"/></g></g></svg>