<svg xmlns="http://www.w3.org/2000/svg" viewBox="0 0 51.72 58.26"><defs><style>.cls-1{fill:#666;}.cls-2{fill:#f2a85f;stroke-linecap:round;stroke-linejoin:round;}.cls-2,.cls-4,.cls-7{stroke:#666;}.cls-3,.cls-7{fill:#f9c07d;}.cls-4{fill:none;}.cls-4,.cls-7{stroke-miterlimit:10;}.cls-5{fill:#ffd9b3;}.cls-6{fill:#d9f0ff;}</style></defs><title>submarine</title><g id="Layer_2" data-name="Layer 2"><g id="box"><path class="cls-1" d="M43.26,51.86v-.22l1.15-1.9L45,47.58l.16-.15c3.17-3,4.8-2.78,5.35-2.54a1.67,1.67,0,0,1,.91,1c.63,1.8,0,5.52-.62,6.65-.43,1.19-2.72,4.18-4.46,4.94a1.67,1.67,0,0,1-1.38,0C43.34,56.81,43.23,53.33,43.26,51.86Zm3.26-3.38L46,50.41l-1,1.7c0,1.93.39,3.66.74,3.89.59-.08,2.89-1.93,3.64-4.05l0-.06,0-.06c1.07-2,.88-5,.54-5.43C49.51,46.27,47.95,47.15,46.51,48.48Z"/><path class="cls-2" d="M26.67,17.41l5.67,2.49,5.75,2.53c1.56.69-1.29,10.29-1.29,10.29L29,27.57l-9.44-2.41S25.11,16.72,26.67,17.41Z"/><path class="cls-3" d="M24.09,19.71l7.3,3.21,7,3.06c.27-1.79.31-3.3-.28-3.56L32.34,19.9l-5.67-2.49c-.6-.26-1.79.82-3,2.25A.89.89,0,0,1,24.09,19.71Z"/><path class="cls-4" d="M26.67,17.41l5.67,2.49,5.75,2.53c1.56.69-1.29,10.29-1.29,10.29L29,27.57l-9.44-2.41S25.11,16.72,26.67,17.41Z"/><ellipse class="cls-3" cx="23.01" cy="40.64" rx="14.7" ry="23.71" transform="translate(-23.46 45.37) rotate(-66.3)"/><path class="cls-5" d="M28.91,27.19c-12-5.26-24.35-3.51-27.62,3.93l-.08.21c4.85-5,15.4-5.65,25.7-1.13C38.79,35.4,45.84,45.55,42.8,53a9.46,9.46,0,0,0,1.92-2.79C48,42.74,40.9,32.45,28.91,27.19Z"/><ellipse class="cls-4" cx="23.01" cy="40.64" rx="14.7" ry="23.71" transform="translate(-23.46 45.37) rotate(-66.3)"/><circle class="cls-1" cx="23.01" cy="40.64" r="7.59" transform="translate(-23.46 45.37) rotate(-66.3)"/><circle class="cls-6" cx="23.01" cy="40.64" r="5.24" transform="translate(-23.46 45.37) rotate(-66.3)"/><path class="cls-1" d="M38.22,33.37S41.79,32,41.66,36s-1.08,13.89-9.43,21.47c0,0-3.31,2.15-4.28-.74l1.83.39s11-8.51,10-22.68Z"/><path class="cls-1" d="M17.63,24.33s-1.39-3.57-4.28-.74S3.86,33.79,3.93,45.07c0,0,.66,3.89,3.44,2.65L5.85,46.63s-1.18-13.86,10-22.68Z"/><path class="cls-1" d="M35.11,1.23S33,0,31.77,2.92c-.83,1.91-2.32,5.14.45,5.55S36,2.53,35.11,1.23Z"/><path class="cls-7" d="M36.65,9.53a3.74,3.74,0,0,1-3.81.88c-1.18-.62-.56-3.39.51-6a14.51,14.51,0,0,1,1.76-3.15,1.81,1.81,0,0,1,3.13.41,9.54,9.54,0,0,1,.49,3.16s3.16.06,3.07,1.84-6.33,14.41-6.33,14.41l-3-1.34S36.81,11,36.65,9.53Z"/></g></g></svg>