<svg xmlns="http://www.w3.org/2000/svg" viewBox="0 0 54.24 68.69"><defs><style>.cls-1{fill:#e6e6e6;}.cls-1,.cls-2,.cls-4{stroke:#666;stroke-miterlimit:10;}.cls-2{fill:#f9c07d;}.cls-3{fill:#666;}.cls-4{fill:none;}</style></defs><title>unicorn</title><g id="Layer_2" data-name="Layer 2"><g id="box"><path class="cls-1" d="M13.93,35.42S4.27,39.13,2.61,42.51,9.39,45,9.39,45l7.33-3.27Z"/><path class="cls-1" d="M25.94,57.13S30.19,66.58,33.66,68s2-6.89,2-6.89L31.95,54Z"/><path class="cls-2" d="M22.71,11.64S23,.48,21.42.5s-5.2,9.29-5.2,9.29Z"/><path class="cls-3" d="M31,15.64s2.38.76,3.08,1.86-.84,1.08-1.66,1.33c0,0,1.52.91,1.51,1.67s-.94,1.3-1.81,1.33-.36,0-.36,0,1.67,1.25,1.51,2.2-.84,1-1.58,1.06c0,0,1.2,1,1.05,1.7a1.75,1.75,0,0,1-1.61,1.52s1.39,1,1.2,1.7a1.43,1.43,0,0,1-1.71,1.25A2,2,0,0,1,31.39,33c-.22,1.09-1,1.19-2.14,1.35l-1-.38L30.14,15.6Z"/><path class="cls-1" d="M45,47.75S42,36.11,29.25,34.39c0,0,2-17.16,1.85-23.24a1.45,1.45,0,0,0-1.91-1.34,16.32,16.32,0,0,0-4.47,2.57s-17.5-7.2-23.06-.74S12.28,25,13.89,25.42c0,0,.25,11.61-.38,12.82,0,0-10.78,7.38-10.84,10.92s9.87,2.17,12.61.95c0,0,9.94,11.27,18,7.9,0,0,5.59,9.93,9.2,8.56S46.39,51,45,47.75Z"/><path class="cls-3" d="M45,47.75s7.47.19,9.2,6.45c0,0-.73,3.49-3.71,2.71,0,0-1.47-6.39-5-6.76Z"/><path class="cls-3" d="M35.55,61.67a12.88,12.88,0,0,1,10.33-3.06c-.36,4.06-1.32,7.86-3.1,8.54C40.53,68,37.51,64.46,35.55,61.67Z"/><path class="cls-3" d="M35.63,61l0,.09s1.46,8.33-2,6.89c-1.61-.67-3.39-3.05-4.83-5.42A8.07,8.07,0,0,1,35.63,61Z"/><path class="cls-3" d="M2.67,49.16c0-1.78,2.76-4.52,5.47-6.82a21.31,21.31,0,0,1,4.2,8.59C8.39,51.7,2.62,51.87,2.67,49.16Z"/><path class="cls-3" d="M1.88,42.46c.62-1.25,2.33-2.57,4.25-3.69a12.28,12.28,0,0,1,3.34,5.7l-.87.39S.22,45.83,1.88,42.46Z"/><path class="cls-3" d="M19.71,13S16,14.53,15.92,17.6l.85.33c0-3.07,3.79-4.62,3.79-4.62Z"/><path class="cls-4" d="M22.74,9.12a6.71,6.71,0,0,0-5.69-1.38"/><path class="cls-4" d="M22.66,5.78a3.51,3.51,0,0,0-4.17-1.22"/></g></g></svg>